<svg xmlns="http://www.w3.org/2000/svg" xmlns:xlink="http://www.w3.org/1999/xlink" preserveAspectRatio="none" viewBox="0 0 100 125">
  <defs>
    <path id="a" d="M157.3-184q-1.2-1.3-2.7-1.3-1.3 0-2.4 1-1.2.9-1.6 2.8l-1.6 12.1h-11.8l1.4-10.8q.1-2.5-1.1-3.8-1.3-1.2-2.8-1.2-1.3 0-2.4.9-1.2 1-1.6 2.9l-1.4 12h-7.4q-1.6.1-2.6.8l-.5.5q-1.1 1-1.1 2.5t1 2.7q.5.5 1.1.8.8.4 1.9.6h6.6l-1.2 10.4h-7.6q-2.1.2-3.2 1.3-1 1.2-1 2.6 0 1.4 1 2.5.9 1.2 3 1.5h6.8l-1.4 12q.1 2 1.3 3.1 1 1.1 2.4 1.1 1.2 0 2.3-.8 1.1-.8 1.8-2.5l1.7-12.8H146l-1.5 11.9q.2 2 1.3 3.1t2.5 1.1q1.1 0 2.3-.8 1.1-.8 1.8-2.5l1.5-12.8h9.2q1.8-.5 2.7-1.6.8-1.1.8-2.4 0-1.2-.8-2.3-.8-1-2.5-1.7h-8.5l1.3-10.4h9.1q1.9-.4 2.8-1.5.6-.8.8-1.8v-1.1q-.2-1-.9-1.8-.8-1.2-2.4-1.7h-8.4l1.3-11q.2-2.3-1-3.7m-22.5 33l1.3-10.4h11.9l-1.1 10.4h-12zM91 16.4Q91 9 83.6 9H16.3Q9 9 9 16.4v67.2Q9 91 16.4 91h67.2q7.4 0 7.4-7.4V16.4m-28.4 4.5q1.6 0 2.7 1.2 1.3 1.3 1 3.6l-1.2 11h8.4q1.6.6 2.5 1.8.6.8.8 1.7v1.2q-.2.9-.8 1.8-1 1-2.8 1.4h-9l-1.4 10.5h8.5q1.7.6 2.5 1.7t.8 2.3q0 1.3-.8 2.4-.9 1-2.8 1.5h-9l-1.5 12.8q-.7 1.8-1.8 2.5-1.1.9-2.3.9-1.4 0-2.5-1.1T52.5 75L54 63H42l-1.6 12.8q-.7 1.8-1.8 2.5-1.1.9-2.3.9-1.4 0-2.4-1.1-1.1-1.1-1.3-3.1L34 63h-6.8q-2-.4-3-1.5-.9-1.1-.9-2.6 0-1.4 1-2.5 1.1-1.1 3.2-1.3h7.6l1.2-10.5h-6.6q-1.1-.1-1.9-.6-.7-.3-1.1-.8-1-1.2-1-2.6 0-1.5 1-2.6l.6-.4q1-.8 2.6-.9h7.4l1.4-12q.4-1.8 1.5-2.8 1.2-1 2.5-1 1.5 0 2.8 1.3 1.2 1.3 1 3.7l-1.3 10.9H57l1.6-12.2q.4-1.9 1.5-2.8 1.3-1 2.5-1m-6.5 23.8H44.2L43 55.1h12l1.1-10.5M98-181v-.7l-.3-1.5-.5-.8v-.1q-1-1.2-2-1.3-1.2-.2-2.3.7-1 .8-1.5 2.8l-1.6 12.6H76.3l1.5-11.7q0-1.9-.8-3-1-1.2-2-1.3-1.2-.2-2.3.7-1 .8-1.5 2.8l-1.5 12.5h-8q-1.9 0-2.8 1.1-.9 1.1-.9 2.4-.1 1.3.8 2.4.8 1.2 2.6 1.4h7.4l-1.3 11.3h-8.4q-1.7 0-2.6 1.2-1 1-1 2.3 0 1.3.8 2.5.9 1 2.6 1.4h7.7l-1.5 12.6q.1 1.8 1 2.8.8.9 1.8 1 1 .2 2-.6 1.1-.7 1.6-2.3l1.8-13.5h13.5l-1.5 12.6q.2 1.8 1 2.8.8.9 1.9 1 1 .2 2-.6 1-.7 1.5-2.3l1.7-13.5h9.8q1.5-.4 2.4-1.4.8-1.1.8-2.3 0-1-.7-2.2-.7-1-2.2-1.5h-9.2l1.4-11.3h9.7q1.5-.3 2.3-1.4.8-1 .9-2.2 0-1-.7-2.1t-2.3-1.6h-9.1L98-181m-9 19l-1.3 11.3H74.2l1.2-11.3h13.5m-48-14l.1-3.6q0-1.8-.6-3.2-.8-1.8-2.1-2.4-1.3-.7-2.6-.3-1.4.4-2.6 1.6-1.1 1.3-1.7 3l-1.3 11.4H19.6l1.1-6.3.2-3.7q0-1.7-.7-3.2-.6-1.5-1.8-2.1-1.3-.7-2.6-.6-1.3.2-2.5 1-1.1.8-1.7 2.3-1.1 3-1.3 6.3l-.5 6.3-5-.1-2.5.3q-1.2.3-2.3 1-1.3.8-1.8 2.2-.4 1.3-.2 2.8.1 1.4 1 2.7.8 1.2 2.1 1.6 1.6.7 3.6.8l3.7-.1-1 9.1-2.6-.2-5.3.6-2.2.8q-1.3.8-1.8 2.3-.5 1.4-.3 2.8.3 1.4 1 2.7.9 1.3 2.2 1.7 2 .7 3.8.5l3.8-.1-1 7.3-.2 3.9q.2 1.8 1 3.1.9 1.4 2.2 1.9 1.3.5 2.7.1 1.4-.3 2.5-1.3 1-1 1.3-2.8l1.4-12.2h10.3l-1.2 9.8.3 2.9q.5 2 1.7 3 1.3.8 2.6.8 1.4-.1 2.8-1.1 1.3-1 2-2.8l.5-2.3 1.1-10.3 4.6.3q2.3.3 4.4-.4 1.8-.6 2.9-1.8 1-1.3 1.3-2.8.2-1.5-.4-3-.6-1.4-2.3-2.5-1-.8-2.1-.9l-2.1-.2-5 .3 1.2-9.4 4.6.3q2.3.4 4.4-.4 1.6-.6 2.8-1.9 1-1.2 1.3-2.7.3-1.4-.4-3-.6-1.4-2.3-2.5l-2-.8-2.1-.2-5 .3 1.1-6.6m-23.8 27l1.2-9.5h10.4l-1.1 9.4H17.1M-6.9 67l1-2.3-4.7 2.2.7 1.5 3-1.4m-5-3l.6 1.4 6.5-3-.2-1.6-7 3.2m6.8-5l-.1-1.8-6.6 3.1-.6.3-.2 1.8.8-.3 6.7-3.1m-.3-3.3l-.2-1.8-6.2 3h-.3l-.2 1.9.5-.2 6.4-2.9m-.3-3.5l-.2-1.4-5.8 2.6-.1 1.7 6-2.9m-.3-3l-.1-1.6-5.1 2.3-.2 1.7 5.4-2.5m-4.5-6.5l-.2 1.8 4-1.8L-7 41l-3.7 1.6m-.4 3.6l-.1 1.7 4.7-2.1-.2-1.5-4.4 2m.8-7l-.2 1.7 3.3-1.5-.1-1.5-3 1.3m2.7-4.7l-2.3 1-.3 1.8 2.7-1.2-.1-1.6m-.2-1.6l-.2-1.6-1.6.8-.2 1.6 2-.9m-1.5-4.3l-.1 1.8 1.3-.6-.2-1.6-1 .3m-.5-7.6l2.5-1 .6-1.9-3.5 1.8.4 1.1m1 2.8v-.2l.1.3.7-2.3-1.4.6.7 1.6m-2.5-6.4l.5 1.3 3-1.3h-3.5m-15-196.8q-1.2.9-1.6 2.9l-1.6 12.5h-13.5l1.4-11.6q.1-1.9-.8-3t-2-1.3q-1-.2-2.2.7-1 .8-1.5 2.8l-1.5 12.4h-8q-1.9.1-2.8 1.2-.9 1.1-.9 2.4-.1 1.3.8 2.4.8 1.1 2.6 1.4h7.4l-1.3 11.3h-8.4q-1.7 0-2.6 1.2-1 1-1 2.3 0 1.3.8 2.4.9 1.2 2.6 1.4h7.7l-1.5 12.7q.1 1.8 1 2.8.8.9 1.8 1 1 .2 2-.6 1.1-.7 1.6-2.3l1.8-13.6h13.5l-1.5 12.7q.1 1.8 1 2.8.8.9 1.8 1 1 .2 2-.6 1.2-.7 1.7-2.3l1.6-13.6h9.9q1.5-.4 2.3-1.4.8-1 .8-2.2 0-1-.6-2.1-.8-1.1-2.3-1.7h-9.2l1.3-11.2h9.8q1.6-.3 2.4-1.4.8-1 .8-2.2 0-1-.7-2.1t-2.3-1.7h-9.1l1.4-11.6q.2-2-.8-3.1-.8-1.2-2-1.3-1-.2-2.1.6m-5.3 34H-45l1.2-11.2h13.5l-1.2 11.3m259-39.8q-1.3-.7-2.6-.3-1.3.4-2.5 1.6-1.2 1.3-1.7 3l-1.4 11.4h-10.4l1.3-10q-.1-1.7-.8-3.2-.6-1.5-1.8-2.1-1.3-.7-2.5-.6-1.3.2-2.5 1t-1.7 2.3q-1.2 3-1.3 6.3l-.5 6.3-5-.1-2.5.3q-1.3.3-2.3 1-1.4.8-1.8 2.2-.5 1.3-.3 2.8.2 1.4 1 2.7.9 1.2 2.2 1.6 1.6.7 3.5.8l3.8-.1-1 9.1-2.6-.2-5.3.6-2.3.8q-1.3.8-1.8 2.3-.4 1.4-.2 2.8t1 2.7q.8 1.3 2.2 1.7 1.9.7 3.7.5l3.8-.1-1.1 11.1q.1 2 1 3.2.8 1.4 2.2 1.9 1.3.5 2.6.1 1.4-.3 2.5-1.3 1-1 1.3-2.8l1.5-12.2h10.3l-1.3 9.8.3 2.9q.6 2 1.8 3 1.2.8 2.6.8 1.4-.1 2.7-1.1 1.3-1 2-2.8l.6-2.3 1-10.3 4.7.3q2.3.3 4.4-.4 1.7-.6 2.8-1.8 1.1-1.3 1.3-2.8.3-1.5-.3-3-.7-1.4-2.3-2.5-1-.8-2.2-.9l-2-.2-5 .3 1.2-9.4 4.5.3q2.3.4 4.4-.4 1.7-.6 2.8-1.9 1.1-1.2 1.3-2.7.3-1.4-.3-3-.6-1.4-2.3-2.5l-2.1-.8h-7l1-6.5.2-3.6q0-1.8-.7-3.2-.7-1.8-2-2.4M216.8-149h-10.4l1.2-9.5h10.3l-1 9.4m.3 161h-6.1L206 30.6h-9.4l5-18.9h-6.4L190 30.6h-9.8l-1 5h9.7L185 50h-9.7l-1.5 5.1h9.8l-5 18.7h6.1l5.4-18.7h9.4l-5.4 18.7h6.5l5-18.7h9.8l1.4-5h-10.1l4-14.5h10.1l1.1-5h-9.8l5.1-18.9M200.6 50h-9.4l4-14.4h9.4l-4 14.4M114.6 45.9l.7 1.5 4.7-2.1.5-1.1h-2.1l-3.8 1.7m.2-1.8h-1v.1l.2.3.8-.4m0 0l-.8.4.6 1.4 3.8-1.8h-3.6m.5 3.3l.7 1.5 3-1.4 1-2.3-4.7 2.2m3.7.1l-3 1.4 1.2 2.6 1.8-4m.2-10.7h1.3l-.1-.5-1.3.5m-3.8-14.7l.5.8 3.1-1.4-.2-1.5-3.3 1.6v.5m3.8 14.7l1.2-.5-.2-1.8-5 2.3h4m-4.2-3.3l-.2 1.6 5.3-2.3-.2-1.4-4.9 2.1m-.2 1.6l-.1 1.7h.5l5-2.3-.2-1.7-5.2 2.4m.5-3.6l-.3 1.9 4.9-2.1-.2-1.7-4.5 2m4.2-5.3l-.2-1.5-3.3 1.4-.2 1.6 3.7-1.5m.3 3.3l-.2-1.6-4 1.8-.3 1.8 4.5-2m-.2-1.6l-.1-1.8-3.7 1.6-.2 2 4-1.8m-.5-5l-2.9 1.3v.8l-.1 1.1 3.3-1.4-.3-1.8m-3.2-.2q.3.7.3 1.6l3-1.4-.2-1.6-3.1 1.4m-.3-3l-.1 1.7 3.3-1.6-.1-1.4-3 1.3m.7-7.1l-.2 1.5 2-.8-.1-1.6-1.7.8m2 2.5l-.2-1.7-2 .8-.1 1.8 2.3-1m.3 3.5l-.1-1.9-2.8 1.2-.2 2 3.1-1.3m-.1-1.9l-.2-1.5-2.3 1-.3 1.7 2.8-1.1m-.7-6.5l-1.3.6-.2 1.8 1.7-.8-.2-1.6m-.1-1.6l-1 .4-.3 1.8 1.4-.6-.1-1.6m-2-8.4l.4 1.1 2.5-1 .7-1.8-3.6 1.7m1.5 4l-.5 4.8 1-.4-.5-4.4M118 2l-1.5.6.7 1.7v-.2.2L118 2m-1.5.6L118 2l.6-1.6-2.5 1 .4 1.3m3-4.8h-1.3l-3 1.3.5 1.1 3.5-1.7.3-.8m-4.8 0l.5 1.4 3-1.3h-3.5m-226 128l.8 1.5 4.7-2.2 1-2.3-6.5 3m4.4 1.6l-3 1.4 1.2 2.5 1.8-3.9m2-6.2l-.3-1.8-7.4 3.5.7 1.5 7-3.2m-7.4-2l-.2 1.9 7.2-3.4-.2-1.5-6.8 3m.8-7.2l-.3 1.9 5.8-2.6-.2-1.7-5.3 2.4m-.4 3.5l-.2 1.9 6.4-3-.1-1.7-6.1 2.8m5.5-9.3l-4.8 2.2-.1 1.9 5-2.3v-.6l-.2-1.2m-.1-1.5l-.2-1.6-4 1.7-.2 1.9 4.4-2m-.4-3.3l-.1-1.5-3.4 1.5-.1 1.7 3.6-1.7m-.3-3l-.1-1.8-2.7 1.2-.2 2 3-1.4m-.3-3.3l-.2-1.7-2 .8-.1 1.9 2.4-1m-1.9-4.3l-.1 1.8 1.6-.8-.1-1.6-1.4.7m.8-6.7h-.1l-.5 4.8 1-.4-.5-4.4m.8-2.3l.7-1.5-2.5 1 .4 1.2 1.4-.7m-2.7-2.8l.4 1.1 3.6-1.7.3-.8h-1.4l-2.9 1.4m-11.9 20.6l-.2 1.8 3.4-1.6-.2-1.5-3 1.3m4.5 25.5l1-2.3-6.5 2.9.8 1.5 4.7-2.2m-1.1 2.3l1-2.3-4.7 2.2.7 1.5 3-1.4m-1.8 4l1.8-4-3 1.4 1.2 2.5m2.8-20l-.3-1.7-5.3 2.4-.3 1.9 5.8-2.6m.7 6.4l-.2-1.5-6.8 3-.2 1.9 7.2-3.4m.3 3.5l-.1-1.8-7.5 3.5.7 1.5 7-3.2m-.3-1.8l-.1-1.7-7.2 3.4-.1 1.7v.1l7.5-3.5m.3 3.5v-.1l-.2-1.6-6.9 3.3.6 1.3 6.5-3m-.8-8.4l-.2-1.7-6.1 2.8-.2 1.9 6.5-3m-.2-1.7l-.2-1.4-5.8 2.5-.1 1.7 6.1-2.8m.3 3.5l-.1-1.8-6.5 3-.2 1.8 6.8-3m-1-10l-.1-1.5-4.4 2-.1 1.7 4.6-2.2m.2 1.8l-.2-1.8-4.6 2.2-.3 1.9 5.1-2.3m.2 1.6l-.2-1.6-5 2.3-.3 1.7 5.5-2.4m-.9-8.2l-.1-1.5-3.4 1.5-.1 1.7 3.6-1.7m.4 3.3l-.2-1.6-4 1.7-.2 1.9 4.4-2m-.2-1.6l-.2-1.7-3.6 1.7-.2 1.7 4-1.8m-.5-4.5l-.1-1.8-2.7 1.1-.2 2 3-1.4m-.9-9.8l-1 .4-.2 1.9 1.3-.7-.1-1.6m-.4-4.4h-.1l-.5 4.8 1-.4-.4-4.4m-.1-.2v.2l.8-2.3-1.5.7.7 1.6v-.2m-1.2 12l-.2 1.8 2.7-1.2-.2-1.5-2.3 1m.5-5.3l-.2 1.8 1.7-.8-.2-1.6-1.3.7m-.4 3.3l-.1 1.9 2.3-1-.2-1.7-2 .8m.3-1.5l-.3 1.5 2-.8-.1-1.5-1.7.8m-.2-11.3l.5 1.2 1.4-.7.6-1.5-2.5 1m-.4-1.2l.5 1.2 2.5-1 .6-1.9-3.6 1.7m-.4-1.1l.4 1.1 3.6-1.7.3-.8h-1.4l-2.9 1.4m-.5-1.4l.5 1.4 2.9-1.4h-3.4m60.4 47.3l.7 1.5 3-1.3 1-2.3-4.6 2.1m5.7-4.4v-.1l-.1-1.6-7 3.3.7 1.3 6.4-3m-.6-6.6l-.3-1.8-6.4 3-.2 1.8 6.8-3m.3 3.3l-.1-1.8-7.1 3.3-.3 1.8.1.1 7.5-3.5m-.7-6.7l-.1-1.4-5.8 2.6-.2 1.6 6.1-2.8m-.4-3.1l-.1-1.6-5 2.3-.3 1.7 5.4-2.4m-.3-3.4l-.1-1.5-4.4 2-.2 1.7 4.8-2.2m-.4-3.2l-.1-1.6-3.7 1.6-.2 1.8 4-1.8m-.3-3.1l-.1-1.5-3.1 1.3-.1 1.8 3.3-1.6m-2.8-3.9l-.2 1.8 2.7-1.1-.1-1.7-2.4 1m.4-3.3l-.3 1.5 2-.8-.1-1.5-1.6.8m.3-3.7l-.2 1.9 1.4-.7-.2-1.6-1 .4m.5-4.8v-.2.2l.8-2.3-1.4.6.6 1.7m-1.5-4l.5 1.2 2.5-1 .6-1.9-3.6 1.7m-.9-2.5l.5 1.3 2.9-1.3h-3.4m23.2-7.3l1.2 2.6 1.8-3.9-3 1.3m-1.3-3l.6 1.5 4.8-2.1 1-2.3-6.4 3m-1.4-3l.7 1.6 7-3.3-.3-1.7-7.4 3.5m.7-7.4l-.2 1.9 6.4-3-.1-1.8-6.1 2.9m-.4 3.7l-.1 1.8 7.1-3.4-.1-1.5-6.9 3.1m.8-7.3l-.3 1.9 5.9-2.5-.3-1.8-5.4 2.5m4.2-15.4l-2.7 1.1-.2 2 3-1.3-.1-1.8m.8 8.1l-.2-1.7-4 1.8-.2 1.9 4.4-2m.3 3v-.3l-.1-1.2-4.8 2.1-.1 2 5-2.3v-.3m-.6-6.4l-.2-1.4-3.4 1.5-.1 1.6 3.6-1.6m-.8-8l-2 .8-.1 1.8 2.4-1-.3-1.6m-.3-3.2l-1.3.6-.1 1.8 1.6-.8-.1-1.6m.1-8.3l.7-1.6-2.5 1 .4 1.2 1.4-.6m-.8 2.3l-.5 4.8 1-.4-.5-4.5m2.1-5.7l.3-.7H-38l-2.9 1.3.4 1.1 3.6-1.7m7 50.3l1.3 2.5 1.8-3.9-3 1.4m3-1.4l1-2.3-4.7 2.2.6 1.5 3-1.4m-5-3l.7 1.4 6.4-3-.1-1.6-7 3.3m.7 1.3l.7 1.5 4.7-2.2 1-2.3-6.4 3m-.3-13.8l-.2 1.9 5.8-2.6-.2-1.7-5.4 2.4m6.3 5.7l-.2-1.6-6.9 3.1-.1 1.9 7.1-3.4m.4 3.5l-.2-1.8-7.4 3.5.6 1.6 7-3.3m-.2-1.8l-.1-1.7-7.2 3.4-.2 1.7v.1l7.5-3.4m-.6-6.8l-.2-1.4-5.8 2.5-.2 1.7 6.1-2.8m.4 3.4l-.2-1.7-6.4 3-.3 1.9 6.9-3.2m-.2-1.7l-.1-1.7-6.2 2.8-.1 1.9 6.4-3m-.5-4.8l-.1-1.6-5.1 2.3-.2 1.7 5.4-2.4m-.1-1.6l-.2-1.8-4.7 2.1-.2 2 5-2.3M-30 37.2l-.1 2 3-1.4-.2-1.8-2.7 1.2m3 2.1l-.1-1.4-3 1.3-.2 1.6 3.3-1.5m-3.4 3.2l-.3 1.7 4-1.8-.1-1.6-3.7 1.7m-.3 3.6l-.2 1.6 4.7-2-.2-1.6-4.3 2m.1-1.9l-.1 1.9 4.3-2-.1-1.6-4 1.7m.3-3.4l-.2 1.7 3.7-1.7-.2-1.5-3.3 1.6m2.7-8.1l-2 .9-.2 1.8 2.4-1-.2-1.7m.3 3.3l-.1-1.6-2.4 1-.2 1.7 2.8-1.2m-.6-4.8l-1.6.8-.2 1.6 2-.8-.2-1.5m-.1-1.7l-1.4.6-.1 1.8 1.6-.8-.1-1.6M-28 28l-1 .4-.3 1.9 1.4-.7-.1-1.6m.3-6.6l.6-1.6-2.5 1 .4 1.1 1.4-.5m-.8 2.2v-.2l.1.2.8-2.3-1.5.6.7 1.7m0 0l-.5 4.8 1-.4-.5-4.4m-1.5-4l.4 1.1 2.5-1 .6-1.8-3.5 1.7m3.8-2.5h-1.3l-3 1.3.5 1.2 3.6-1.7.2-.8m-4.8 0l.6 1.3 2.9-1.3H-31m-61.3 25.1l.6 1.5 3-1.3 1.1-2.3-4.7 2.1m-1.4-2.8l.7 1.4 6.5-3-.2-1.6-7 3.2m6.5-8.3l-.2-1.8-6.4 3-.3 1.9 6.9-3.1m.3 3.3l-.1-1.8-7.2 3.4-.2 1.8 7.5-3.4m-.6-6.8l-.2-1.4-5.8 2.6-.2 1.6 6.2-2.8m-.4-3l-.1-1.7-5.1 2.4-.2 1.6 5.4-2.3m-4.4-6.6l-.3 1.8 4-1.8-.1-1.6-3.6 1.6m-.5 3.6l-.1 1.7 4.7-2.1-.1-1.5-4.5 2m.8-7l-.2 1.7 3.4-1.5-.2-1.5-3 1.3m2.5-6.3l-.2-1.6-1.6.8-.2 1.6 2-.8m.3 3.2l-.1-1.6-2.4 1-.1 1.8 2.6-1.2m-.6-6.4l-.2-1.7-1 .5-.2 1.8 1.4-.6m-.7-6.3l.1.3.8-2.3-1.5.6.6 1.6V-1m-2.3-6.2l.5 1.3 2.8-1.3h-3.3m.8 2.5l.5 1.1 2.5-1 .7-1.8-3.7 1.7m-10.5 48.6l1.2 2.5 1.8-3.9-3 1.4m-1.4-3l.7 1.5 4.7-2.2 1-2.3-6.4 3m-1.3-3l.7 1.6 6.9-3.3-.2-1.7-7.5 3.5m.8-7.4l-.3 1.9 6.5-3-.2-1.8-6 2.8m-.5 3.8l-.1 1.8 7.1-3.4-.1-1.5-6.9 3.1m.8-7.3l-.2 1.9 5.8-2.6-.2-1.6-5.4 2.3m4.3-13.5l-.1-1.8-2.8 1.2-.2 1.9 3.1-1.3m.7 6.3l-.3-1.7-4 1.8-.2 1.8 4.5-1.9m.3 3.3v-.3l-.1-.3-.1-1.2-4.7 2.1-.2 2 5-2.4m-.6-6.5l-.2-1.5-3.3 1.5-.2 1.6 3.7-1.6m-1-9.6l-.1-1.6-1.3.6-.2 1.8 1.7-.8m.3 3.2l-.2-1.7-2 .9-.1 1.8 2.3-1m-2.2-13.7l.4 1.2 1.5-.6.6-1.6-2.5 1m1.1 2.9l-.5 4.8 1-.5-.5-4.3m-2-5.2l.5 1.2 3.5-1.8.3-.7h-1.3l-3 1.3m-13.5 45.4l.7 1.4 6.4-3-.1-1.6-7 3.2m1.4 2.9l.7 1.5 3-1.4 1-2.3-4.7 2.1m.7 1.5l1.2 2.6 1.8-3.9-3 1.4m-1.4-3l.7 1.5 4.7-2.2 1-2.3-6.4 3m-.3-13.8l-.2 1.8 5.8-2.6-.2-1.6-5.4 2.3m6.1 4.2l-.2-1.8-6.5 3-.2 1.9 6.9-3.1m.3 3.3l-.2-1.8-7.1 3.4-.2 1.8 7.5-3.4m-.2-1.8l-.1-1.5-6.9 3.1-.1 1.8 7.1-3.4m.4 3.5l-.2-1.7-7.5 3.5.8 1.5 6.9-3.3m-.7-6.8l-.2-1.7-6 2.8-.3 2 6.5-3m-.2-1.8l-.1-1.4-5.8 2.6-.2 1.6 6.1-2.8m-.3-3l-.2-1.7-5 2.4-.2 1.6 5.4-2.3m-.2-1.7l-.1-1.7-4.7 2.1-.2 2 5-2.4m-4.6-1.3l-.2 1.7 4.7-2.1-.2-1.5-4.3 2m.1-2l-.1 2 4.3-2-.2-1.7-4 1.8m4-1.8l-.1-1.6-3.7 1.6-.2 1.8 4-1.8m-3.6-1.6l-.2 1.6 3.7-1.6-.2-1.5-3.3 1.5m.3-3.6l-.2 1.9 3.1-1.3-.2-1.8-2.7 1.2m3 2l-.1-1.4-3 1.3-.2 1.7 3.3-1.5m-.4-4.9l-.2-1.7-2 .9-.2 1.8 2.4-1m.2 1.6l-.2-1.6-2.3 1-.3 1.8 2.8-1.2m-.4-3.3l-.2-1.5-1.6.8-.2 1.6 2-.8m-.3-3.2l-1.3.6-.2 1.8 1.7-.8-.2-1.6m0 0l-.1-1.7-1 .5-.3 1.8 1.4-.6m-.6-6V-1v.3l.8-2.3-1.5.6.7 1.6m0 0v.1L-114 4l1-.5-.5-4.3m-2-5.2l.5 1.2 3.5-1.8.3-.7h-1.3l-3 1.3m.5 1.2l.4 1.1 2.5-1 .6-1.8-3.5 1.7m2.3 1.7l.6-1.6-2.5 1 .4 1.2 1.5-.6m.2-4.2h-3.5l.5 1.3 3-1.3z"/>
    <path id="b" fill="none" stroke="#000" stroke-linecap="round" stroke-linejoin="round" d="M-128.3-3.4v.3l.8-2.3.7-1.6.6-1.8.3-.8h-4.8l.5 1.3.4 1.2.5 1.1.4 1.2.6 1.6v-.1zm0 .3l.5 4.4.1 1.6.2 1.6.2 1.5.1 1.7.2 1.6.2 1.8.1 1.5.2 1.5.1 1.6.2 1.7.2 1.5.1 1.8.2 1.6.2 1.6.1 1.5.2 1.7.2 1.7.1 1.6.2 1.7.2 1.8.1 1.6-1 2.3-1.1 2.3-1.7 3.7-.1.2-.1-.2-1.1-2.3-.7-1.5-.7-1.5-.6-1.4-.7-1.6.1-1.8.2-1.8.2-1.8.2-2 .2-1.6.2-1.9.2-1.7.2-1.9.1-1.6.2-2 .2-1.7.1-1.6.2-1.7.2-2 .2-1.7.2-1.8.2-1.6.1-1.8.2-1.9.5-4.7m246.5 1h-3.5l.5 1.3 3-1.3h1.3l-.3.7-.6 1.8L118 2l-.8 2.3.5 4.4.1 1.7.2 1.5.1 1.6.2 1.7.2 1.6.1 1.8.2 1.4.1 1.5.1 1.6.3 1.8.1 1.5.1 1.7.2 1.6.2 1.7.1 1.4.2 1.7.2 1.8v.5m-5-14.7v-.6l.1-1.6.3-2 .2-1.8.1-1.8.2-1.6.2-1.8.2-1.8.5-4.8-.7-1.6-.4-1.3-.4-1.1-.5-1.1m-227.8-6.5h-3.4l.5 1.3 3-1.3h1.3l-.3.8-.6 1.8-.7 1.6-.7 2.3.5 4.4.1 1.6.2 1.6.1 1.5.2 1.7.2 1.6.1 1.8.1 1.4.2 1.6.1 1.6.3 1.7.1 1.5.1 1.8.2 1.6.2 1.6.1 1.4.2 1.8.2 1.7.1 1.5.2 1.8.2 1.8.1 1.5v.1l-1 2.3-1 2.3-1.8 3.9-1.3-2.5-.6-1.5-.7-1.5-.7-1.4-.7-1.5v-.1l.2-1.8.1-1.8.3-1.9.2-1.8.1-1.7.2-1.9.2-1.6.2-2 .2-1.7.1-1.9.3-1.7.1-1.6.1-1.7.3-2 .2-1.7.1-1.8.2-1.6.2-1.8.2-1.8.5-4.8-.7-1.7-.4-1.2-.5-1.1-.4-1.2m2 5.2v-.3.3m-.7-1.7l1.5-.6m-1.9-.6l2.5-1m-3-.1l3.6-1.8m12.3 0l.2-.7h-1.3l-3 1.3.5 1.2 3.5-1.8-.6 1.9-.6 1.6-.8 2.3.5 4.4.1 1.6.2 1.6.1 1.5.2 1.7.2 1.6.1 1.8.2 1.4.1 1.6.1 1.6.3 1.7.1 1.5.1 1.2v.6l.2 1.6.2 1.6.1 1.4.2 1.8.2 1.7.1 1.5.2 1.8.2 1.8.1 1.5v.1l-1 2.3-1 2.3-1.8 3.9-1.3-2.5-.6-1.5-.7-1.5-.6-1.4-.8-1.5v-.1l.2-1.8.1-1.8.3-1.9.2-1.8.1-1.7.2-1.9.2-1.6.2-2 .1-1.7.3-1.9.2-1.7.1-1.6.1-1.7.3-2 .2-1.7.1-1.8.2-1.6.2-1.8.2-1.8.5-4.8-.7-1.7-.4-1.2-.4-1.1m1.5 4v-.3.3m1-6.5h-3.5l.5 1.3M-92-4.8l.5 1.1 2.5-1 .7-1.8-3.7 1.7-.3-1.2-.5-1.3h4.7l-.3.8m-1.3 3.4l.7-1.6m-1.5 3.9v-.3l.1.3.8-2.3-1.5.6.6 1.6v.1h.1l.5 4.3.1 1.7.1 1.6.2 1.5.2 1.7.1 1.6.2 1.8.2 1.4.1 1.6.2 1.6.2 1.7.1 1.5.2 1.8.1 1.6.2 1.6.2 1.4.1 1.8.2 1.7.2 1.5.1 1.8.2 1.8.2 1.5v.1l-1.1 2.3-1 2.3-1.9 3.9-1.2-2.5-.6-1.5-.7-1.5-.7-1.4-.6-1.5-.1-.1.2-1.8.2-1.8.2-1.9.1-1.8.2-1.7.2-1.9.2-1.6.2-2 .2-1.7.2-1.9.2-1.7.1-1.6.2-1.7.2-2 .1-1.7.2-1.8.2-1.6.1-1.8.3-1.8.5-4.8m-2-5.2l3-1.3m-2.1 3.6l.4 1.2m-11.3-1.2l2.5-1m-2.1 2.2l1.5-.6m37.9-2.7l.2-.8h-1.4l-2.9 1.3.5 1.2 3.6-1.7-.7 1.8-.7 1.6-.7 2.3.5 4.4.1 1.7.1 1.5.2 1.6.2 1.7.1 1.5.2 1.8.1 1.5.2 1.5.1 1.6.3 1.8.1 1.4.1 1.8.2 1.6.2 1.7.1 1.4.2 1.7.2 1.8.1 1.5.2 1.8.2 1.7.1 1.6-1 2.4-1 2.3-1.9 3.8-1.2-2.5-.6-1.5-.7-1.5-.7-1.4-.7-1.5v-.1l.2-1.8.2-1.8.1-1.8.3-1.9.1-1.6.2-1.9.2-1.7.2-2 .2-1.6.2-1.9.1-1.8.2-1.6.2-1.7.1-1.9.3-1.8.1-1.8.2-1.6.1-1.8.3-1.8.5-4.8-.7-1.6-.4-1.3-.5-1.1m1.5 4v-.2l.1.2m-.7-1.6l1.5-.7m-1.9-.6l2.5-1m-.5-2.5h-3.4l.5 1.3m59 22.4h-3.5l.5 1.3 3-1.3h1.3l-.3.8-.6 1.8-.7 1.6-.7 2.3.4 4.4.2 1.6.1 1.6.2 1.6.2 1.6.1 1.6.2 1.8.1 1.5.2 1.5.2 1.6.1 1.7.2 1.5.2 1.8.1 1.5.2 1.8.2 1.4.1 1.6.2 1.8.2 1.5.1 1.8.2 1.8.2 1.5v.1L-6 64.6l-1 2.3-1.8 3.9-1.3-2.5-.6-1.5-.7-1.5-.6-1.4-.8-1.5v-.1l.2-1.8.2-1.8.2-1.9.2-1.8.1-1.7.2-1.8.2-1.8.2-1.9.1-1.6.3-2 .2-1.7.1-1.6.2-1.7.2-2 .2-1.7.1-1.8.2-1.6.2-1.8.2-1.9.4-4.7-.6-1.7-.4-1.2-.4-1.2-.5-1.1m2 5.1v-.2.3m-1.1-2.9l2.5-1m-2 2.2l1.5-.6m-2.3-1.8l3.5-1.7m-21-.8H-31l.6 1.3 2.9-1.3h1.3l-.3.8-.6 1.9-.7 1.6-.7 2.2.5 4.4.1 1.6.1 1.6.2 1.6.2 1.7.1 1.5.2 1.9.1 1.4.2 1.5.1 1.7.3 1.6.1 1.5.1 1.8.2 1.6.2 1.7.1 1.4.2 1.7.2 1.8.1 1.5.2 1.8.2 1.7.1 1.6-1 2.3-1 2.3-1.8 4-1.3-2.6-.6-1.5-.7-1.5-.7-1.4-.6-1.5-.1-.1.2-1.8.1-1.8.3-1.8.1-1.9.2-1.6.2-1.9.2-1.7.2-2 .2-1.6.1-1.9.3-1.8.1-1.5.1-1.8.3-1.9.1-1.8.2-1.8.2-1.6.1-1.8.3-1.8.5-4.8-.7-1.7-.4-1.1-.4-1.2-.4-1.2M-37 18l.3-.8H-38l-2.9 1.3.4 1.1 3.6-1.7-.6 1.9-.7 1.6-.8 2.3.5 4.4.1 1.6.2 1.6.2 1.6.1 1.6.2 1.6.2 1.8.1 1.5.1 1.5.2 1.6.2 1.7.1 1.5.1 1.2.1.3v.3l.1 1.5.3 1.8.1 1.4.1 1.6.3 1.8.1 1.5.1 1.8.3 1.8.1 1.5v.1l-1 2.3-1.1 2.3-1.8 3.9-1.2-2.5-.6-1.5-.8-1.5-.6-1.4-.7-1.5v-.1l.1-1.8.2-1.8.2-1.9.2-1.8.2-1.7.1-1.8.3-1.8.1-1.9.2-1.6.2-2 .2-1.7.1-1.6.2-1.7.2-2 .2-1.7.2-1.8.1-1.6.2-1.8.2-1.9.5-4.7-.6-1.7-.4-1.2-.5-1.2m1.5 4.1v-.3.3m-1-2.9l2.5-1m-2.1 2.2l1.4-.6m9.6 2.3v-.4.2m-1.1-2.9l2.5-1m-2.1 2.3l1.4-.6m-2.3-1.8l3.6-1.7M-29 28.4l1-.4m-1.3 2.3l1.4-.7m-1.5 2.4l1.6-.8m-1.8 2.4l2-.8m-2.2 2.7l2.4-1m-12.2-4.2l1.4-.6m-1.2-1.3l1-.3m-1.4 4l1.7-.8m-1.8 2.4l2-.9m-2.2 2.7l2.4-1m7.5 4.6l3.1-1.3m-3.2 3l3.3-1.5m-4 8.5l4.7-2.1m-14-8.5l2.7-1.1m7.7 1.1l2.6-1.2m-3.4 8.2l4-1.8m-4.1 3.7l4.3-2m-4-1.6l3.7-1.7m17.4-10.5l1.4-.6m-1.2-1.3l1-.3m-1.5 5.6l2-.9m-1.8-.7l1.6-.8m-2 4.2l2.4-1m-3.3 9.8l4-1.8m-4.3 5.3l4.7-2.1m-3.7-8.5l2.7-1.1m-3.2 6.4l3.7-1.6m-4 5.3l4.3-2m-3.8-3.3l3.3-1.5m-3.1-.2l3-1.3M-38 17.2h-3.4l.5 1.3M-65.3 4.7l1-.4m-1.3 4l1.6-.8m-1.8 2.4l2-.8m-1.7-2.5L-64 6m-1.9 5.8l2.4-1m-2.9 6.3l3.4-1.5m-4 6.8l4.4-2m-4.5 3.7l4.7-2.2m-4.3-1.4l4-1.8m-3.9 0l3.7-1.6m-3.3-1.7l3-1.3m-2.9-.6l2.8-1.2m-4.7 19l6.1-2.8m-6.4 6.6l6.8-3.1m-7 4.9l7.1-3.4m-6.4-3.8L-62 27m-5.6.7l5.4-2.4m-6 7.8l6.5-3M-66.6 43l4.7-2.1m-5.4.6l6.4-3m-5 6l3-1.4m-5-3L-61 37m-7.7 1.7l7.5-3.5m-6.2-9.1l5-2.3m2.4 51.8h-3.4l.5 1.3 2.9-1.3h1.4l-.3.8-.6 1.9-.7 1.5-.8 2.3.5 4.4.1 1.6.2 1.7.2 1.5.1 1.6.2 1.7.2 1.8.1 1.4.1 1.5.2 1.6.2 1.8.1 1.5.2 1.7.1 1.6.3 1.7.1 1.4.1 1.7.3 1.8.1 1.5.1 1.8.3 1.7.1 1.6-1 2.4-1.1 2.3-1.8 3.9-1.2-2.6-.6-1.5-.8-1.5-.6-1.3-.7-1.6v-.1l.2-1.8.1-1.8.2-1.8.2-1.9.2-1.6.1-1.9.3-1.7.1-2 .2-1.6.2-1.9.2-1.8.1-1.5.2-1.8.2-1.9.2-1.8.2-1.8.1-1.5.2-1.8.2-1.9.5-4.8-.6-1.7-.4-1.1-.5-1.2-.4-1.2M-61 82v-.2.2m-1.4 13.6l2.7-1.1m-2.9 3l3-1.3M-62 92l2-.8m-2.2 2.6l2.4-1m-2.3-13.6l2.6-1m-3-.2l3.6-1.7m-2.8 4l1.5-.5m-1.3 7l1-.4m-1.4 4l1.7-.8m-1.5-1l1.4-.5m48.1-31.2l.3-.1 6.2-3m-6.6 4.9l.4-.2 6.4-2.9m-7 4.9l.6-.3 6.6-3m-7.4 5.1l.8-.3 6.7-3.1m-4.7 9.4l3-1.4m-5-3l6.9-3.3m-6.3 4.6l6.5-2.9m-5.8 4.5l4.7-2.2m-6-9.6l6-2.9m-5.9 1.2l5.8-2.5m-34.2 17.5l3-1.4m7.4 1.3l3-1.4m-5.7-4.5l7.4-3.4m-7-2.1l6.5-3m-5.6 11.4l6.4-3m-6.9-9l5.8-2.5m-6 13.1l7-3.2m-7.5-.1l7.1-3.4m-7 1.5l6.9-3m-6.5-.7l6.1-2.8m-4.7 14.6l4.7-2.2m-15-23.6l3.4-1.5m-3.2-.2l3-1.3m-3.5 6.4l4-1.8m-4.2 3.6l4.4-1.9m-4.6 3.6l4.8-2.1m-5 4l5.1-2.3m-4.3-4.9l3.6-1.6m-5.3 17.8l6.9-3.1m-7 4.9l7.1-3.4m-6.8-.3l6.4-3m-6-.5l5.8-2.5m-6 4.2l6.1-2.9m-5.8-.6l5.4-2.5m-4.4 17.8l4.8-2.2m-5.4.7l6.4-3m-7.1 1.6l7-3.3m-7.7 1.8l7.4-3.5m4-7.5l5.4-2.4m-5.2.7l5-2.3m14.9 2.4l5-2.3m-5.2 4l5.4-2.5M-91 4l1-.5M-92.3 18l3.6-1.6m-3.8 3.4l4-1.8m-4.4 5.3l4.7-2.1m-4.5.4l4.4-1.9m-3.4-8.7l2.4-1m-2.9 6.4l3.4-1.5m-3.3-.2l3.1-1.3m-2.8-.7l2.6-1.1m-2-5.8l1.4-.6m-1.7 4l2-.8m-1.8-.8l1.6-.8m-24.5-1l1.3-.6m-1.1-1.3l1-.4m-1.8 7.5l2.4-1m-2.2-.8l2-.8m-1.8-.8l1.7-.8m-2.5 7.9l3.1-1.3m-3.2 3l3.3-1.5m-3.5 3.1l3.7-1.6m-4 5.3l4.3-2m-4.2 0l4-1.7m-3.3-5.3l2.8-1.1m-3.8 11.7l4.7-2.1m-3.5 22.6l3-1.4m-3.6-.1l4.7-2.2m-6-9.7l6-2.8m-6.5 6.6l6.9-3.1m-7 4.9l7.1-3.4m-6.5 6.8l6.9-3.3m-7.7 1.8l7.5-3.5m-7-2l6.5-3m-5.6 11.4l6.4-3m-6.9-9l5.8-2.6m18.5 16l4.7-2.1m-4 3.6l3-1.3m-5-3l6.9-3.3m-7.6 1.8l7.4-3.5m-7.3 1.6l7.2-3.4m-7 1.6l6.8-3.1m-6.5-.7l6.2-2.8M-93 40.8l6.5-2.9m-7.3-5.4l6.4-3m-6.1-.6l5.8-2.6m-5.6.8l5.4-2.4m-14-20.7l1-.4m-1.6 40.3l3-1.4m-5-12l6-2.8m-6.5 6.6l6.9-3.1m-7 4.9l7.1-3.4m-6.5 6.8l6.9-3.3m-7.7 1.8l7.5-3.5m-7-2l6.5-3m-5.6 11.4l6.5-3m-19-10.8l5.4-2.4m-5.2.6l5-2.3m7.8-3.1l4-1.8m-5 10.8l5.8-2.6m-5.6.8l5.4-2.4m-5.2.6l5-2.3m-4.8.4l4.7-2.1m-4.6.4l4.5-1.9m-3.3-8.7l2.3-1m-2.9 6.4l3.3-1.5m-3.2-.2l3.1-1.3m-2.8-.7l2.7-1.1m-2.2-4l1.7-.8m-1.9 2.4l2-.8m-1.6-2.6l1.3-.6m-2.5 12.8l3.6-1.6m-3.6 25.9l4.7-2.2m5.4-14.9l5-2.3m-31.8 55h-3.4l.5 1.3 2.9-1.4h1.4l-.3.8-.7 1.9-.6 1.5-.8 2.3.5 4.4.2 1.6.1 1.7.1 1.5.3 1.7.1 1.5.1 1.8.2 1.5.1 1.5.2 1.7.2 1.6.1 1.5.2 1.8.2 1.6.1 1.7.2 1.4.2 1.7.1 1.8.2 1.5.2 1.8.1 1.7.2 1.6-1 2.3-1.1 2.3-1.8 4-1.2-2.6-.7-1.5-.7-1.5-.6-1.4-.7-1.5v-.1l.1-1.8.2-1.8.2-1.8.2-1.9.1-1.6.3-1.9.2-1.7.2-2 .1-1.6.2-1.9.2-1.8.1-1.5.2-1.8.2-1.9.2-1.8.1-1.8.3-1.5.1-1.8.2-1.9.5-4.8-.6-1.6-.5-1.3-.4-1.1-.4-1.1m15.1-1.4h-3.4l.5 1.4 2.9-1.4h1.4l-.3.8-.7 1.9-.6 1.5-.8 2.3.5 4.4.2 1.6.1 1.7.2 1.5.2 1.7.1 1.5.2 1.8.1 1.5.1 1.5.2 1.7.2 1.6.1 1.5.2 1.3v.5l.1 1.6.3 1.7.1 1.4.1 1.7.3 1.8.1 1.5.1 1.8.3 1.7.1 1.6-1 2.3-1.1 2.3-1.8 4-1.2-2.6-.6-1.5-.8-1.5-.6-1.4-.7-1.5v-.1l.1-1.8.2-1.8.2-1.8.2-1.9.2-1.6.2-1.9.2-1.7.1-2 .2-1.6.2-1.9.2-1.8.1-1.5.2-1.8.2-1.9.2-1.8.2-1.8.2-1.5.1-1.8.2-1.9.5-4.8-.6-1.6-.5-1.3-.4-1.1-.4-1.1m.4 1.1l3.6-1.7m-2.1 5.7v-.2.2m-1-2.8l2.5-1m-2.1 2.2l1.4-.7m-13 2.3v-.2.2m-.5 4.8l1-.4m11.2.4l1-.4m-1.2 2.3l1.4-.7m-1.5 2.5l1.6-.8m-2 4.2l2.4-1m-2.3-.9l2-.8m-2.3 4.4l2.7-1.2m-14.1-14l1.4-.7m-1.9-.5l2.5-1m-2.9-.2l3.6-1.7m-2.8 12.4l1.3-.7m-1.8 5.9l2.3-1m-2.2-.9l2-.8m-1.8-.8l1.7-.8m-2.2 6l2.7-1.2m9.1 4.8l3.4-1.5m-3.5 3.2l3.6-1.7m-3.8 3.4l4-1.8m-4.4 5.4l4.8-2.2m-5 4.1l5.1-2.3m-4.7-1.3l4.4-2m-5.3 10.8l6.1-2.8m-6.8 10.2l7.4-3.5m-7.1-.2l6.8-3m-7 4.9l7.2-3.4m-6.8-.3l6.4-3m-6-.5l5.8-2.6m-5.6.7l5.3-2.4m-3.7 19.2l3-1.4m-3.6-.1l4.7-2.2m-5.5.7l6.5-3m-7.1 1.6l7-3.2m-17.9-18.1l3.6-1.7m-2.9 27.4l3-1.4m-4.1-20.7l4.4-2m-4.2.1l4-1.8m-4.3 5.4l4.6-2.2m-4 21.1l4.7-2.2m-6.1-9.6l6.1-2.8m-6.5 6.5l6.8-3m-7 4.9l7.2-3.4m-6.6 6.8l7-3.3m-7.7 1.7l7.5-3.5m-7-2l6.5-3m-5.7 11.4l6.5-3m-6.5-12.5l5-2.3m-5.3 4l5.5-2.4m-5.7 4.3l5.8-2.6m-4.5-9.9l3.4-1.5m55.6 8.1l5.1-2.3m-4.9.4l4.8-2.2m-4.6.5l4.4-2m-4 22.6l4.8-2.1m-5.4.6l6.4-3m-7.1 1.7l7-3.3m-7.4-2l6.8-3m-6.4-.7l6.1-2.8m-6.3 4.7l6.5-3m-6.1-.5l5.8-2.6m-5.6.7l5.3-2.4m-3.7 19.2l3-1.3m-5.5-6.5l7.1-3.3m-5.3-14.7l3.6-1.6m-3.8 3.4l4-1.8m-5.8 19.9l7.5-3.5m-65.1-17.4l3-1.3m9.2 1.3l3-1.3m44.5.8l3.4-1.6m175.9-95L118 2m-.8 2.3v-.2.2m-.5 4.8l1-.4m-1.3 2.3l1.4-.7m-1.7-8.9l2.5-1m-2.5 24l3-1.3m-3.3-.2l3.1-1.4m-3.5 0l3.3-1.5m-3.2-.1l3.1-1.3m-2.8-.7l2.7-1.1M116 16l2.3-1m-2.2-.8l2-.8m-1.8-.8l1.7-.8m1.2 24.9l1.2-.5m-5.2.5l5-2.3m-4.7-4.6l4-1.8m-4.2 3.5l4.4-1.9m-4.7 3.8l4.9-2.1m-4.2-3.4l3.7-1.6m-3.5-.1l3.3-1.4m-4.4 10.3l5.3-2.4m.4 11.4l-.5 1-1 2.3-1.8 4-1.3-2.6-.6-1.5-.7-1.5-.6-1.4-.2-.3m.2.3l.8-.4m-.2 1.8l3.8-1.8m-2.4 5l3-1.4m-3.6-.1l4.7-2.1m-4.3-45l3.5-1.7"/>
    <path id="c" fill="none" stroke="#000" stroke-linecap="round" stroke-linejoin="round" d="M104.2-2l2.8-1.4h-3.3l.5 1.4.3 1.1 3.7-1.7.2-.8H107m-2.5 2.5l.5 1.1 2.5-1 .7-1.8m23.5 7.8l.8-2.3.6-1.5.7-1.9.2-.8h-4.7l.4 1.4.5 1.1.4 1.2.4 1.1.7 1.7V5v.2l.5 4.4.1 1.7.1 1.5.2 1.6.2 1.7.1 1.5.2 1.8.2 1.5.1 1.5.2 1.7.2 1.6.1 1.6.2 1.7.1 1.6.2 1.7.2 1.4.1 1.7.2 1.8v.4M-16.4 17.9l.3-.7h-1.3l-3 1.3.4 1.1 3.6-1.7-.6 1.9-.6 1.6-.8 2.3.4 4.4.2 1.6.2 1.6.1 1.6.2 1.6.2 1.6.1 1.8.1 1.5.2 1.5.1 1.6.3 1.7.1 1.5.1 1.8.2 1.5.2 1.8.1 1.4.2 1.6.2 1.8.1 1.5.2 1.8.2 1.8.1 1.5v.1l-1 2.3-1 2.3-1.8 3.9-1.3-2.5-.6-1.5-.7-1.5-.6-1.4-.8-1.5v-.1l.2-1.8.1-1.8.3-1.9.2-1.8.1-1.7.2-1.8.2-1.8.2-1.9.1-1.6.3-2 .1-1.7.2-1.6.1-1.7.3-2 .2-1.7.1-1.8.2-1.6.2-1.8.2-1.9.4-4.7-.6-1.7-.4-1.2-.4-1.2m1.4 4v-.2l.1.3m-1.1-2.9l2.5-1m-2.1 2.2l1.5-.6m.2-4.2H-21l.5 1.3m1.3 11.8l1.3-.6m-1.1-1.3l1-.3m-1.4 4l1.7-.8m-1.9 2.4l2-.9m-2.1 2.7l2.3-1m-2.8 4.7l3.1-1.3m-3.2 3l3.3-1.5m-3-2.1l3-1.3m-4 11.8l4.7-2.1m-4.6.4l4.4-1.9m-4.2 0l4-1.7m-3.8 0l3.7-1.6m-32-17.3l.7-2.3.6-1.6.7-1.8.3-.8h-4.8l.5 1.3.4 1.2.4 1.1.4 1.3.7 1.6v-.2.2l.5 4.4.1 1.6.2 1.6.1 1.6.3 1.7.1 1.5.1 1.9.2 1.4.2 1.5.1 1.7.2 1.6.2 1.5.1 1.8.1 1.6.3 1.7.1 1.4.1 1.7.3 1.8.1 1.5.1 1.8.3 1.7.1 1.6-1 2.3-1.1 2.3-1.7 3.8-.1.2-.1-.3-1.1-2.3-.6-1.5-.8-1.5-.6-1.4-.7-1.5v-.1l.2-1.8.1-1.8.2-1.8.2-1.9.1-1.6.3-1.9.1-1.7.3-2 .1-1.6.2-1.9.2-1.8.2-1.5.1-1.8.2-1.9.2-1.8.1-1.8.3-1.6.1-1.8.2-1.8.5-4.8m29.1 44.6l3-1.3m-5-3l7-3.3m-6.3 4.6l6.4-2.9m-7.6-1.8l7.1-3.4m-7 1.6l6.9-3.1m-6.7 1.3l6.5-3m-6.1-.6l5.8-2.5m-6.7 11.6l7.5-3.5m-6.7-4l6-2.8m-4.7 14.6l4.7-2.1m-5.7-13.1L-16 49m-5.2.8l5-2.3M-135.6 82l.8-2.3.6-1.5.6-1.9.3-.8h-4.8l.5 1.3.4 1.2.5 1.2.4 1.1.7 1.7v-.2.2l.4 4.4.2 1.6.2 1.7.1 1.5.2 1.6.2 1.7.1 1.8.1 1.4.2 1.5.2 1.6.1 1.8.2 1.5.2 1.7.1 1.6.2 1.7.2 1.4.1 1.7.2 1.8.2 1.5.1 1.8.2 1.7.2 1.6-1.1 2.4-1 2.3-1.8 3.6v.3l-.2-.3-1-2.3-.7-1.5-.7-1.5-.7-1.3-.7-1.6v-.1l.2-1.8.2-1.8.1-1.8.3-1.9.1-1.6.2-1.9.2-1.7.2-2 .2-1.6.2-1.9.1-1.8.2-1.5.2-1.8.1-1.9.3-1.8.1-1.8.2-1.5.2-1.8.2-1.9.4-4.8m0 0h.1m48.4-3.5l.5 1.1 2.5-1 .6-1.8-3.6 1.7-.4-1.2-.5-1.3h4.8l-.3.8m-3.2 2.8l.5 1.2 1.4-.6.7-1.6m-1.5 3.9v-.3.3l-.6-1.7m-1.3-3.5l2.9-1.3m-.2 4.2l-.8 2.3.5 4.3.2 1.7.1 1.6.2 1.6.2 1.6.1 1.6.2 1.8.1 1.5.1 1.5.2 1.6.2 1.7.1 1.5.2 1.8.1 1.5.3 1.8.1 1.4.1 1.7.3 1.7.1 1.5.1 1.8.3 1.8.1 1.5v.1l-1 2.3-1.1 2.3-1.8 3.9-1.2-2.5-.6-1.5-.8-1.5-.6-1.4-.7-1.5v-.2l.1-1.7.2-1.8.2-1.8.2-2 .2-1.6.2-1.8.2-1.8.1-1.9.2-1.6.2-2 .2-1.7.1-1.6.2-1.7.2-2 .2-1.7.2-1.8.2-1.6.1-1.8.2-1.8.5-4.8M-87.1 96l2.7-1.1m-2.9 3.1l3-1.3m-2.3-5.8l1.7-.8m-2 4.2l2.4-1m-2.3-.8l2-.8m-1.6-2.6l1.4-.6m-1.2-1.3l1-.4m-3 19.8l4.8-2.1m-5.1 5.8l5.3-2.5m-5.1.8l5-2.3M-88 105l4.4-2m-4.2 0l4-1.7m-3.8 0l3.6-1.6m-5.5 19.6l7.2-3.3m-6.6 6.7l7-3.3m-7.7 1.8l7.4-3.5m-7.1-.2l6.8-3.1m-6.6 1.3l6.4-3m-6-.6l5.8-2.5m-6 4.2l6.1-2.8m-4.1 16l3-1.3m-3.6-.2l4.7-2.1m-5.5.6l6.5-2.9m-5.7-21.4l3.4-1.5M135.5 44l-1 2.1-1 2.4-1.8 3.6v.3l-.1-.3-1.2-2.3-.6-1.5-.7-1.5-.7-1.3-.7-1.6v-.1l.2-1.8.2-1.8.2-1.8.1-1.9.2-1.6.2-1.9.2-1.7.2-2 .2-1.6.2-1.9.2-1.8.1-1.6.2-1.6.2-2 .1-1.8.2-1.8.2-1.5.1-1.8.3-1.9.5-4.8M105 .3l.4 1.3 1.4-.7.7-1.6M106 3v.2h.1V3zm-.6-1.4L106 3m-3.4 33.7v-.5l.3-1.9.1-1.6.2-1.9.2-1.7.2-2 .2-1.6.2-1.9.2-1.8.1-1.5.2-1.8.2-1.9.1-1.8.2-1.8.2-1.5.1-1.8.3-1.9.5-4.8m.8-2.3l-.8 2.3.5 4.4.1 1.7.1 1.6.2 1.5.2 1.6.1 1.7.2 1.8.2 1.4.1 1.5.2 1.6.2 1.8.1 1.4.2 1.8.1 1.6.2 1.7-5.8 2.6m2.5-24.9l1-.4m-1.3 4l1.6-.8m-1.5-1l1.4-.5m-2.3 9.4l3.1-1.3m-2.8-.6l2.6-1.1m-3.1 6.3l3.6-1.6m-3-5.4l2.4-1m-3.3 9.8l4-1.8m-3.6-1.5l3.4-1.6M105 13l2-.8m-1.5 24.5l2.7-1.2m-5.5.7l5.7-2.7m-5.6.8l5.9-2.6m-5.5-.9l5.4-2.4m-5-1.3l4.7-2m-4.9 4l5-2.3m-5.2 17.3l.3.5 1.2-.6m1.8 5l-.5 1.1-.7-1.6-.5-.9-.6-1.5-.7-1.5m.7 1.5l2.8-1.3m-2.2 2.8l2-.9m-3-21.2l4.4-2"/>
    <path id="d" fill="none" stroke="#000" stroke-linecap="round" stroke-linejoin="round" stroke-width="10" d="M66 51.3l11-11.1q3.2-3.1 3.2-7.7 0-4.5-3.2-7.6-2.3-2.3-5.3-3-1.1-.3-2.4-.3-4.6 0-7.8 3.3L48.8 37.7q-3.2 3.2-3.2 7.7 0 4.3 2.9 7.5m-9.1-6.3L28.9 57q-3.1 3.3-3.1 7.8t3.1 7.7q2.3 2.2 5.3 2.9 1.1.3 2.4.3 4.5 0 7.8-3.3l12.8-12.9q3.2-3.1 3.2-7.6 0-4.4-2.9-7.4"/>
  </defs>
  <use xlink:href="#a"/>
  <use xlink:href="#b"/>
  <use xlink:href="#c"/>
  <use transform="translate(228.4 -41.3)" xlink:href="#d"/>
</svg>
